name crouch3_gait
datacolumns 17
otherdata 0
datarows 51
keys a_key
wrap
endheader

time	rZ	rX	rY	r_hip_flexion	r_hip_adduction	r_hip_rotation	r_knee_angle	r_ankle_angle	l_rZ	l_rX	l_rY	l_hip_flexion	l_hip_adduction	l_hip_rotation	l_knee_angle	l_ankle_angle
0	-9.782	-9.352	-2.317	39.488	12.679	18.38	-26.256	-39.074	-11.376	-9.456	-3.555	-1.829	-4.52	-5.003	-16.607	13.528
0.02	-9.359	-9.178	-2.465	38.5	12.789	18.345	-27.466	-38.125	-10.602	-9.213	-4.5	-4.001	-4.61	-5.713	-17.553	11.425
0.04	-9.072	-8.907	-2.933	37.773	13.025	18.426	-29.28	-37.289	-10.033	-8.869	-5.803	-5.611	-4.762	-5.976	-18.993	8.363
0.06	-8.904	-8.651	-3.733	37.235	13.51	18.466	-31.453	-36.042	-9.716	-8.4	-7.374	-6.447	-4.932	-5.869	-21.056	4.85
0.08	-8.906	-8.222	-4.662	36.798	13.861	18.623	-33.55	-34.944	-9.639	-7.758	-9.11	-6.411	-5.069	-5.467	-23.751	1.57
0.1	-9.063	-7.776	-5.708	36.425	14.196	18.7	-35.381	-34.071	-9.693	-7.028	-10.91	-5.663	-5.345	-4.823	-26.818	-1.187
0.12	-9.361	-7.382	-6.895	36.091	14.583	18.628	-36.853	-33.422	-9.881	-6.149	-12.608	-4.139	-5.663	-3.923	-30.104	-2.913
0.14	-9.77	-6.864	-8.146	35.716	14.79	18.648	-37.885	-33.096	-10.176	-5.32	-14.178	-2.048	-6.19	-2.869	-33.286	-3.576
0.16	-10.179	-6.373	-9.385	35.121	14.945	18.849	-38.288	-33.001	-10.637	-4.505	-15.526	0.55	-6.842	-1.532	-36.067	-3.149
0.18	-10.609	-5.802	-10.514	34.424	14.881	18.893	-38.474	-32.874	-11.168	-3.699	-16.703	3.414	-7.568	-0.028	-38.181	-1.947
0.2	-11.017	-5.213	-11.712	33.64	14.841	18.94	-38.425	-32.854	-11.663	-2.957	-17.761	6.324	-8.358	1.557	-39.434	-0.388
0.22	-11.52	-4.502	-12.9	32.975	14.668	19.007	-38.343	-32.839	-12.131	-2.349	-18.665	9.258	-9.188	3.288	-39.768	1.153
0.24	-12.03	-3.849	-14.157	32.352	14.632	19.078	-38.271	-32.861	-12.617	-1.718	-19.562	12.252	-9.953	4.799	-39.279	2.153
0.26	-12.459	-3.245	-15.421	31.632	14.647	19.289	-38.131	-32.865	-13.105	-1.225	-20.363	15.347	-10.722	6.016	-38.32	2.77
0.28	-12.827	-2.512	-16.516	30.835	14.36	19.688	-37.919	-32.712	-13.547	-0.703	-21.163	18.526	-11.348	6.571	-37.232	3.225
0.3	-13.215	-1.915	-17.616	30.092	14.242	19.97	-37.752	-32.527	-13.905	-0.249	-21.919	21.575	-11.871	6.563	-35.931	3.448
0.32	-13.638	-1.533	-18.815	29.204	14.376	20.447	-37.547	-31.954	-14.175	0.11	-22.631	24.388	-12.314	6.022	-34.372	3.38
0.34	-13.946	-1.204	-19.948	28.189	14.514	20.788	-37.284	-31.65	-14.384	0.46	-23.354	26.981	-12.678	4.849	-32.639	3.095
0.36	-14.257	-0.959	-21.02	27.084	14.651	21.307	-36.973	-31.293	-14.582	0.55	-23.968	29.124	-13.115	3.708	-30.56	2.581
0.38	-14.501	-0.844	-22.046	25.846	14.803	21.844	-36.661	-30.935	-14.661	0.56	-24.569	30.58	-13.635	2.811	-27.87	1.613
0.4	-14.696	-0.889	-22.993	24.5	14.963	22.268	-36.395	-30.578	-14.605	0.358	-25.017	31.282	-14.227	2.619	-24.677	0.007
0.42	-14.962	-1.123	-23.773	23.156	15.14	22.571	-36.208	-30.177	-14.381	0.078	-25.358	31.232	-14.807	3.063	-21.296	-1.695
0.44	-15.285	-1.593	-24.288	21.846	15.389	22.638	-36.064	-30.015	-14.015	-0.244	-25.604	30.602	-15.33	4.006	-18.282	-3.006
0.46	-15.48	-2.176	-24.507	20.334	15.385	22.95	-35.874	-29.96	-13.566	-0.651	-25.719	29.715	-15.776	5.268	-16.242	-3.663
0.48	-15.55	-2.935	-24.37	18.687	15.238	23.054	-35.771	-30.087	-13.037	-0.974	-25.763	28.906	-16.081	6.429	-15.495	-3.373
0.5	-15.47	-3.846	-23.953	16.838	14.956	23.317	-35.679	-30.391	-12.574	-1.309	-25.607	28.193	-16.222	7.7	-15.853	-2.307
0.52	-15.185	-4.782	-23.138	14.828	14.48	23.614	-35.53	-31.116	-15.017	-5.128	-22.692	30.077	-18.535	8.349	-12.637	-1.731
0.54	-14.757	-5.568	-21.937	12.889	13.794	23.795	-35.468	-32.162	-14.591	-5.791	-21.422	28.723	-18.009	9.609	-12.084	-1.298
0.56	-14.299	-6.126	-20.507	11.315	13.02	23.865	-35.742	-33.169	-14.128	-6.295	-19.969	27.297	-17.174	10.393	-12.064	-0.304
0.58	-13.82	-6.542	-18.971	10.263	12.414	23.957	-36.44	-34.027	-13.675	-6.623	-18.501	25.884	-16.151	10.389	-12.552	1.144
0.6	-13.41	-6.716	-17.556	9.891	11.986	24.28	-37.635	-34.624	-13.323	-6.727	-17.129	24.609	-14.992	9.559	-13.411	2.782
0.62	-13.192	-6.685	-16.142	10.456	11.782	24.512	-39.089	-35.21	-13.173	-6.642	-15.783	23.573	-13.778	8.555	-14.273	4.518
0.64	-13.232	-6.442	-14.989	11.942	11.79	25.106	-40.735	-35.577	-13.279	-6.363	-14.736	22.7	-12.621	7.59	-14.847	5.893
0.66	-13.449	-6.204	-14.049	14.124	12.115	25.941	-42.431	-35.613	-13.515	-6.163	-13.854	21.895	-11.664	6.792	-15.177	7.225
0.68	-13.783	-5.988	-13.297	16.837	12.638	26.904	-44.097	-35.274	-13.869	-5.93	-13.169	21.181	-10.802	5.773	-15.361	8.365
0.7	-14.217	-5.75	-12.687	19.945	13.171	27.906	-45.572	-34.685	-14.304	-5.721	-12.571	20.531	-10.005	4.655	-15.416	9.242
0.72	-14.69	-5.631	-12.062	23.224	13.704	28.721	-46.531	-34.146	-14.765	-5.617	-11.962	19.907	-9.261	3.632	-15.384	9.926
0.74	-15.146	-5.585	-11.433	26.498	14.157	29.089	-47.068	-33.646	-15.209	-5.589	-11.336	19.307	-8.507	2.657	-15.375	10.569
0.76	-15.594	-5.682	-10.686	29.883	14.467	28.804	-47.277	-33.048	-15.642	-5.699	-10.592	18.684	-7.766	1.896	-15.254	10.965
0.78	-15.971	-5.819	-9.822	33.144	14.583	28	-47.169	-32.412	-16.002	-5.834	-9.736	18.111	-6.961	0.759	-15.296	11.296
0.8	-16.279	-6.038	-8.838	36.246	14.523	26.673	-46.556	-32.162	-16.297	-6.057	-8.766	17.554	-6.185	-0.424	-15.379	11.663
0.82	-16.487	-6.321	-7.823	39.073	14.35	24.864	-45.424	-32.154	-16.494	-6.334	-7.777	16.879	-5.485	-1.432	-15.462	11.992
0.84	-16.572	-6.657	-6.864	41.482	14.135	22.795	-43.814	-32.153	-16.572	-6.666	-6.842	15.976	-4.928	-1.967	-15.478	12.275
0.86	-16.534	-7.102	-5.956	43.408	13.897	20.889	-41.678	-32.305	-16.534	-7.102	-5.956	14.811	-4.573	-1.798	-15.355	12.606
0.88	-16.353	-7.555	-5.062	44.791	13.677	19.013	-39.321	-32.647	-16.359	-7.545	-5.081	13.474	-4.313	-1.345	-15.325	13.035
0.9	-16.091	-8.022	-4.333	45.711	13.478	17.653	-36.77	-33.111	-16.107	-8	-4.364	11.925	-4.166	-0.927	-15.252	13.534
0.92	-15.593	-8.537	-3.7	45.914	13.432	16.669	-34.193	-33.668	-15.636	-8.501	-3.74	10.162	-4.179	-0.846	-15.331	14.119
0.94	-14.883	-8.998	-3.242	45.53	13.522	16.238	-31.922	-34.304	-14.957	-8.96	-3.275	8.108	-4.268	-1.18	-15.461	14.709
0.96	-14.015	-9.346	-2.955	44.599	13.728	16.425	-30.153	-34.816	-14.123	-9.311	-2.983	5.758	-4.363	-1.876	-15.585	15.1
0.98	-13.076	-9.529	-2.856	43.253	14.045	17.104	-29.079	-35.014	-13.204	-9.52	-2.852	3.227	-4.427	-2.828	-15.761	15.108
1	-12.156	-9.508	-3.077	41.77	14.502	18.022	-28.911	-34.917	-12.308	-9.514	-3.013	0.702	-4.381	-3.906	-16.053	14.727
